<svg width="28" height="21" viewBox="0 0 28 21" fill="none" xmlns="http://www.w3.org/2000/svg">
<g clip-path="url(#clip0_211_2050)">
<path fill-rule="evenodd" clip-rule="evenodd" d="M7.04589 3.61382L0.0950928 10.4947C1.48538 11.8711 3.07357 13.031 4.80514 13.9385C5.28376 15.1953 6.03398 16.3739 7.05579 17.3855C10.9001 21.1911 17.1329 21.1911 20.9772 17.3855C21.999 16.3739 22.7492 15.1953 23.2278 13.9384C24.9594 13.031 26.5476 11.8711 27.9379 10.4947L20.9927 3.61941C20.9875 3.61427 20.9824 3.60912 20.9772 3.60399C17.1329 -0.201655 10.9001 -0.201655 7.05579 3.60399C7.0525 3.60727 7.04919 3.61054 7.04589 3.61382ZM20.3121 15.1799C18.2865 15.8566 16.1602 16.2032 14.0165 16.2032C11.8728 16.2032 9.74651 15.8566 7.72095 15.1799C7.94042 15.4681 8.18272 15.7448 8.44793 16.0073C11.5234 19.0519 16.5096 19.0519 19.585 16.0073C19.8502 15.7448 20.0926 15.4681 20.3121 15.1799ZM8.59069 4.84431C9.11295 5.18588 9.66828 5.47817 10.2494 5.71646C11.4437 6.20619 12.7237 6.45825 14.0165 6.45825C15.3092 6.45825 16.5893 6.20619 17.7836 5.71646C18.3647 5.47817 18.92 5.18587 19.4423 4.8443C16.4053 1.98356 11.6277 1.98357 8.59069 4.84431Z" fill="#3B4158"/>
</g>
<defs>
<clipPath id="clip0_211_2050">
<rect width="27.8428" height="19.4899" fill="white" transform="translate(0.0950928 0.749756)"/>
</clipPath>
</defs>
</svg>
