<svg width="29" height="20" viewBox="0 0 29 20" fill="none" xmlns="http://www.w3.org/2000/svg">
<g clip-path="url(#clip0_211_2073)">
<path d="M27.0806 1.03323C27.0806 1.35759 27.3467 1.62054 27.6751 1.62054H28.2697C28.5981 1.62054 28.8642 1.35759 28.8642 1.03323C28.8642 0.70887 28.5981 0.445923 28.2697 0.445923H27.6751C27.3467 0.445923 27.0806 0.70887 27.0806 1.03323Z" fill="#212326"/>
<path d="M9.83839 19.2398H12.7267L11.8858 18.4092C11.6628 18.1889 11.3604 18.0652 11.045 18.0652H9.83839C5.24126 18.0652 1.51456 14.3839 1.51456 9.84286C1.51456 5.30179 5.24126 1.62054 9.83839 1.62054H19.3513C23.9485 1.62054 27.6752 5.30179 27.6752 9.84286C27.6752 14.3839 23.9485 18.0652 19.3513 18.0652H15.7927C15.3197 18.0652 14.866 17.8795 14.5315 17.5491L13.5464 16.576C12.9889 16.0253 12.2327 15.7159 11.4443 15.7159H9.83839C6.55471 15.7159 3.8928 13.0865 3.8928 9.84286C3.8928 6.59923 6.55471 3.96977 9.83839 3.96977H19.3513C22.635 3.96977 25.2969 6.59923 25.2969 9.84286C25.2969 13.0865 22.635 15.7159 19.3513 15.7159H17.0664C16.5933 15.7159 16.1396 15.5303 15.8051 15.1999L14.82 14.2268C14.2625 13.6761 13.5063 13.3667 12.7179 13.3667H9.83839C7.86821 13.3667 6.27103 11.789 6.27103 9.84286C6.27103 7.89671 7.86821 6.31901 9.83839 6.31901H19.3513C21.3215 6.31901 22.9187 7.89671 22.9187 9.84286C22.9187 11.7653 21.3602 13.3282 19.4233 13.366L19.4229 13.3667H18.5528C18.0797 13.3667 17.626 13.1811 17.2915 12.8507L16.3064 11.8776C15.849 11.4257 15.2578 11.1363 14.6247 11.047L14.5949 11.0175H9.83839C9.18166 11.0175 8.64927 10.4916 8.64927 9.84286C8.64927 9.19414 9.18166 8.66824 9.83839 8.66824H19.3513C20.0081 8.66824 20.5405 9.19414 20.5405 9.84286C20.5405 10.4916 20.0081 11.0175 19.3513 11.0175H16.9731L17.814 11.8481C18.0369 12.0683 18.3394 12.1921 18.6548 12.1921H19.3513C20.6648 12.1921 21.7296 11.1403 21.7296 9.84286C21.7296 8.54543 20.6648 7.49363 19.3513 7.49363H9.83839C8.52494 7.49363 7.46015 8.54543 7.46015 9.84286C7.46015 11.1403 8.52494 12.1921 9.83839 12.1921H14.2043C14.6774 12.1921 15.1311 12.3777 15.4656 12.7081L16.4507 13.6812C17.0082 14.2319 17.7643 14.5413 18.5528 14.5413H19.6486V14.5323C22.1371 14.3807 24.1078 12.3391 24.1078 9.84286C24.1078 7.24799 21.9782 5.14439 19.3513 5.14439H9.83839C7.21148 5.14439 5.08191 7.24799 5.08191 9.84286C5.08191 12.4378 7.21148 14.5413 9.83839 14.5413H12.7179C13.191 14.5413 13.6447 14.727 13.9792 15.0574L14.9643 16.0305C15.5218 16.5812 16.2779 16.8906 17.0664 16.8906H19.3513C23.2917 16.8906 26.4861 13.7352 26.4861 9.84286C26.4861 5.95051 23.2917 2.79516 19.3513 2.79516H9.83839C5.89798 2.79516 2.70368 5.95051 2.70368 9.84286C2.70368 13.7352 5.89798 16.8906 9.83839 16.8906H11.4443C11.9173 16.8906 12.371 17.0762 12.7055 17.4066L13.6907 18.3797C14.2482 18.9304 15.0043 19.2398 15.7927 19.2398H19.3513C24.6052 19.2398 28.8643 15.0326 28.8643 9.84286C28.8643 4.65307 24.6052 0.445922 19.3513 0.445923L9.83839 0.445925C4.58453 0.445925 0.325439 4.65308 0.325439 9.84286C0.32544 15.0326 4.58453 19.2398 9.83839 19.2398Z" fill="#212326"/>
</g>
<defs>
<clipPath id="clip0_211_2073">
<rect width="28.5388" height="18.7939" fill="white" transform="translate(0.325439 0.445923)"/>
</clipPath>
</defs>
</svg>
