<svg width="39" height="21" viewBox="0 0 39 21" fill="none" xmlns="http://www.w3.org/2000/svg">
<g clip-path="url(#clip0_211_2053)">
<path d="M38.5803 7.48053C38.5843 7.4515 38.5843 7.42216 38.5803 7.39314C38.5841 7.36949 38.5841 7.34537 38.5803 7.32167L38.2967 5.28034C38.2558 5.03612 38.1463 4.80786 37.9807 4.62108L37.9321 4.56548L37.843 4.4781L32.9332 0.331912L33.0709 0.466952C32.9582 0.33478 32.8168 0.22906 32.657 0.15758C32.4971 0.0860993 32.323 0.0506743 32.1473 0.0539184H30.6565C30.4141 0.0492097 30.1772 0.12477 29.9841 0.26838C29.7812 0.125635 29.537 0.0504613 29.2873 0.0539184H27.7965C27.601 0.0508085 27.4082 0.0983802 27.2374 0.191831C27.0667 0.285281 26.9242 0.421293 26.8243 0.586089C26.6703 0.821467 26.6125 1.10506 26.6623 1.38038L26.8486 2.66712C26.7252 2.59852 26.5854 2.56292 26.4435 2.56388H19.2247C18.9657 2.56547 18.7126 2.63989 18.4955 2.77833C18.2855 2.90718 18.1169 3.09168 18.0094 3.3105L17.4503 2.84187C17.2303 2.64229 16.9399 2.53411 16.6401 2.54005H5.3136C5.05368 2.54469 4.79953 2.61587 4.57634 2.74656C4.271 2.92177 4.04722 3.20666 3.95248 3.54085L0.355205 15.3361C0.287991 15.5304 0.28138 15.74 0.336216 15.9381C0.391053 16.1361 0.504855 16.3137 0.663083 16.4481C0.704313 16.4823 0.747604 16.5142 0.792718 16.5434C0.792718 16.5434 0.719788 16.4957 0.679278 16.456L5.58909 20.6101C5.79678 20.7976 6.06833 20.9024 6.35062 20.904H17.7663C18.027 20.8974 18.2813 20.8234 18.5036 20.6895C18.6293 20.6222 18.7418 20.5334 18.8358 20.4274L18.8763 20.3718L18.9411 20.2924L18.9897 20.205L19.5245 20.6578C19.7292 20.8378 19.9948 20.9368 20.2698 20.9358H31.7098C31.9702 20.9273 32.2241 20.8535 32.4471 20.7213C32.5699 20.6499 32.6818 20.5616 32.7793 20.4592L32.8197 20.4036L32.8846 20.3242C32.919 20.2739 32.9489 20.2208 32.9737 20.1653C33.0001 20.1172 33.0218 20.0666 33.0385 20.0144L36.3198 9.24387V9.14854C36.3238 9.11158 36.3238 9.0743 36.3198 9.03734V8.96587C36.3237 8.94217 36.3237 8.91805 36.3198 8.89435C36.3235 8.84413 36.3235 8.7937 36.3198 8.74342H37.3731C37.4647 8.75167 37.5569 8.75167 37.6485 8.74342H37.7215C37.7807 8.72609 37.8378 8.70208 37.8916 8.67196H37.9726L38.1184 8.56076L38.1833 8.51309L38.2967 8.3701V8.32249L38.3777 8.18744C38.3732 8.16118 38.3732 8.13429 38.3777 8.10804C38.3734 8.09514 38.3734 8.0812 38.3777 8.06831C38.3949 8.02174 38.4085 7.97392 38.4182 7.92532C38.4144 7.90966 38.4144 7.89332 38.4182 7.87765C38.4143 7.854 38.4143 7.82983 38.4182 7.80618C38.4182 7.80618 38.5803 7.4964 38.5803 7.48053Z" fill="black"/>
<path d="M16.9723 3.44557C17.0154 3.4837 17.0454 3.53384 17.0584 3.58923C17.0715 3.64462 17.0669 3.70259 17.0453 3.75534L13.4561 15.5426C13.4109 15.6713 13.3185 15.7789 13.1969 15.8444C13.0979 15.9093 12.9834 15.9477 12.8646 15.9556H1.45711C1.35969 15.951 1.26739 15.9115 1.19784 15.8444C1.15647 15.8069 1.12743 15.7582 1.11444 15.7044C1.10145 15.6507 1.10511 15.5943 1.12493 15.5426L4.7222 3.75534C4.76365 3.62502 4.8532 3.51456 4.97336 3.44557C5.07394 3.38533 5.18793 3.3499 5.30554 3.34231H16.7131C16.8097 3.34322 16.9024 3.38014 16.9723 3.44557ZM11.0174 13.1677L13.1644 6.13026H7.1528L5.01386 13.1677H11.0174ZM27.8614 3.56471C27.9003 3.60905 27.9489 3.64422 28.0037 3.66759C28.0584 3.69097 28.1177 3.70196 28.1774 3.69974H29.66C29.7165 3.70028 29.7721 3.6867 29.8218 3.6603C29.8714 3.63389 29.9133 3.59552 29.9436 3.54882C29.9699 3.51234 29.9885 3.47104 29.9982 3.42738C30.008 3.38372 30.0087 3.33858 30.0003 3.29465L29.7086 1.19773C29.6809 1.10068 29.631 1.01106 29.5628 0.93561C29.5238 0.891267 29.4752 0.856102 29.4205 0.832724C29.3658 0.809347 29.3064 0.798363 29.2468 0.800582H27.7642C27.7077 0.800044 27.652 0.813617 27.6024 0.840023C27.5528 0.866428 27.5109 0.904794 27.4806 0.951502C27.4239 1.0627 27.3996 1.13418 27.4239 1.19773L27.7237 3.29465C27.739 3.39676 27.7873 3.49137 27.8614 3.56471ZM32.5686 1.18184C32.5408 1.08479 32.4909 0.995171 32.4228 0.919724C32.3855 0.875543 32.3383 0.840388 32.2849 0.816969C32.2315 0.793555 32.1734 0.782508 32.1149 0.784695H30.6241C30.5686 0.783145 30.5137 0.796353 30.4652 0.82292C30.4167 0.849487 30.3765 0.888432 30.3487 0.93561C30.2948 1.00608 30.2714 1.09459 30.2839 1.18184L30.5836 3.27876C30.6024 3.37979 30.6502 3.47347 30.7214 3.54882C30.761 3.5923 30.8098 3.62687 30.8643 3.65018C30.9189 3.67348 30.9778 3.68497 31.0373 3.68384H32.5281C32.5835 3.68456 32.6381 3.67101 32.6864 3.64452C32.7348 3.61803 32.7752 3.57956 32.8036 3.53294C32.8318 3.4974 32.8515 3.45612 32.8613 3.41214C32.8711 3.36816 32.8708 3.32259 32.8603 3.27876L32.5686 1.18184ZM26.557 4.359L26.4111 3.32642H19.2247C19.1119 3.33252 19.0027 3.36818 18.9087 3.42968C18.849 3.46158 18.7971 3.5058 18.7565 3.55928C18.716 3.61276 18.6878 3.67423 18.6738 3.73945L18.0742 5.70928C18.0503 5.75851 18.0421 5.81374 18.0508 5.86761C18.0595 5.92149 18.0846 5.9715 18.1228 6.01113C18.1911 6.07409 18.2803 6.11079 18.374 6.11439H27.1079L24.9609 13.1518H16.2513C16.139 13.1543 16.0296 13.1873 15.9353 13.2471C15.8207 13.3184 15.737 13.4288 15.7004 13.5569L15.0927 15.5267C15.0729 15.5773 15.0677 15.6322 15.0777 15.6854C15.0877 15.7387 15.1125 15.7882 15.1494 15.8285C15.2156 15.8957 15.3054 15.9355 15.4006 15.9397H26.8405C26.9588 15.9298 27.0729 15.8916 27.1727 15.8285C27.2923 15.7626 27.3821 15.6548 27.4239 15.5267L30.7132 4.75614H27.0107C26.9519 4.75728 26.8936 4.74659 26.8392 4.72473C26.7849 4.70287 26.7357 4.6703 26.6947 4.62905C26.6277 4.55702 26.5804 4.46961 26.557 4.37488V4.359Z" fill="white"/>
</g>
<defs>
<clipPath id="clip0_211_2053">
<rect width="38.2838" height="20.8821" fill="white" transform="translate(0.299438 0.0537109)"/>
</clipPath>
</defs>
</svg>
